# Blender v3.3.0 OBJ File: ''
# www.blender.org
mtllib texture.mtl
o Cube_Cube.001
v -1.000000 -1.000000 -5.343088
v -1.000000 1.000000 -5.343088
v -1.000000 -1.000000 -7.343088
v -1.000000 1.000000 -7.343088
v 1.000000 -1.000000 -5.343088
v 1.000000 1.000000 -5.343088
v 1.000000 -1.000000 -7.343088
v 1.000000 1.000000 -7.343088
vt 0.375000 0.000000
vt 0.625000 0.000000
vt 0.625000 0.250000
vt 0.375000 0.250000
vt 0.625000 0.500000
vt 0.370078 0.288373
vt 0.625000 0.750000
vt 0.370078 0.538373
vt 0.352147 0.987990
vt 0.003128 0.987990
vt 0.003128 0.638971
vt 0.352147 0.638971
vt 0.120078 0.288373
vt 0.120078 0.538373
vt 0.875000 0.500000
vt 0.875000 0.750000
vn -1.0000 0.0000 0.0000
vn 0.0000 0.0000 -1.0000
vn 1.0000 0.0000 0.0000
vn 0.0000 0.0000 1.0000
vn 0.0000 -1.0000 0.0000
vn 0.0000 1.0000 0.0000
usemtl Material.001
s off
f 1/1/1 2/2/1 4/3/1 3/4/1
f 3/4/2 4/3/2 8/5/2 7/6/2
f 7/6/3 8/5/3 6/7/3 5/8/3
f 5/9/4 6/10/4 2/11/4 1/12/4
f 3/13/5 7/6/5 5/8/5 1/14/5
f 8/5/6 4/15/6 2/16/6 6/7/6
